# xmcd
#
# Track frame offsets:
#	150
#	21317
#	43543
#	64100
#	81045
#	99608
#	118990
#	134385
#	151770
#	167515
#	186035
#	209463
#	230750
#	261278
#
# Disc length: 4777 seconds
#
# Revision: 2
# Processed by: cddbd v1.5.2PL0 Copyright (c) Steve Scherf et al.
# Submitted via: audiograbber 1.83.01
#
DISCID=c012a70e
DTITLE=98° - The Collection
DYEAR=2002
DGENRE=Pop
TTITLE0=Invisible Man
TTITLE1=Because Of You
TTITLE2=The Hardest Thing
TTITLE3=I Do (Cherish You)
TTITLE4=Why (Are We Still Friends)
TTITLE5=Thank God I Found You (Mariah Carey and Joe)
TTITLE6=Give Me Just One Night (Una Noche)
TTITLE7=My Everything
TTITLE8=The Way You Want Me To
TTITLE9=This Gift
TTITLE10=Was It Something I Didn't Say
TTITLE11=Never Let Go
TTITLE12=True To Your Heart (Featuring Stevie Wonder)
TTITLE13=Misc Files
EXTD=
EXTT0=
EXTT1=
EXTT2=
EXTT3=
EXTT4=
EXTT5=
EXTT6=
EXTT7=
EXTT8=
EXTT9=
EXTT10=
EXTT11=
EXTT12=
EXTT13=
PLAYORDER=
